<svg xmlns="http://www.w3.org/2000/svg" width="24" height="24" fill="none"><path fill="currentColor" d="M12 4.223c4.287 0 7.777 3.49 7.777 7.777s-3.49 7.777-7.777 7.777S4.223 16.291 4.223 12 7.713 4.223 12 4.223M12 2C6.479 2 2 6.479 2 12s4.479 10 10 10 10-4.479 10-10S17.521 2 12 2"/><path fill="currentColor" d="M13.443 14.715a2.2 2.2 0 0 0 .542-.44c.266-.296.616-.532 1.015-.532.733 0 1.252.732.81 1.316q-.399.525-.958.903-1.17.793-2.727.792c-1.038 0-2.002-.288-2.806-.86a4.4 4.4 0 0 1-1.673-2.301h-.634a.5.5 0 0 1-.5-.5v-.105a.5.5 0 0 1 .5-.5h.418a7 7 0 0 1-.026-.48q0-.187.026-.504h-.418a.5.5 0 0 1-.5-.5v-.105a.5.5 0 0 1 .5-.5h.647c.313-.96.867-1.727 1.672-2.294s1.735-.855 2.794-.855c1.06 0 1.948.267 2.727.8q.558.382.954.904c.443.58-.073 1.311-.803 1.311-.4 0-.75-.238-1.02-.534a2.2 2.2 0 0 0-.54-.433c-.384-.217-.826-.326-1.335-.326q-.814 0-1.447.376c-.42.25-.75.6-.98 1.055h2.06a.5.5 0 0 1 .5.5v.105a.5.5 0 0 1-.5.5H9.349c-.017.213-.03.384-.03.505q0 .16.03.48h2.394a.5.5 0 0 1 .5.5v.104a.5.5 0 0 1-.5.5H9.669q.345.682.988 1.068.643.387 1.456.388c.508 0 .95-.113 1.334-.334z"/></svg>