<svg xmlns="http://www.w3.org/2000/svg" width="24" height="24" fill="none"><g fill="currentColor" clip-path="url(#a)"><path d="M20 12q0-.385-.036-.76c-.237-.05-.494-.11-.762-.181-1.17-.314-2.895-.924-4.116-2.145-1.178-1.178-1.85-2.882-2.218-4.045a18 18 0 0 1-.244-.843A8 8 0 1 0 12 20v2C6.477 22 2 17.523 2 12S6.477 2 12 2c.784 0 1.548.09 2.28.26 0 0 .58 3.6 2.22 5.24 1.663 1.662 5.143 1.996 5.185 2 .205.799.315 1.637.315 2.5 0 5.523-4.477 10-10 10v-2a8 8 0 0 0 8-8"/><path fill-rule="evenodd" d="M11.742 7.002a2 2 0 0 1 1.373.467l.127.116 2.83 2.829a2 2 0 0 1 .115 2.701l-.116.127-2.829 2.83a2 2 0 0 1-2.701.115l-.127-.116-2.83-2.829a2 2 0 0 1-.115-2.701l.116-.127 2.829-2.83a2 2 0 0 1 1.328-.582M9 11.828l2.828 2.828 2.828-2.828L11.828 9z" clip-rule="evenodd"/></g><defs><clipPath id="a"><path fill="currentColor" d="M0 0h24v24H0z"/></clipPath></defs></svg>