<svg xmlns="http://www.w3.org/2000/svg" width="24" height="24" fill="none"><g clip-path="url(#a)"><path fill="currentColor" fill-rule="evenodd" d="M10.586 2.1a2 2 0 0 1 2.7-.116l.128.117.729.728A4 4 0 0 0 16.97 4H18a2 2 0 0 1 1.994 1.85L20 6v1.03a4 4 0 0 0 1.172 2.828l.728.728a2 2 0 0 1 .116 2.701l-.117.127-.728.728a4 4 0 0 0-1.172 2.829V18a2 2 0 0 1-1.85 1.995L18 20h-1.028a4 4 0 0 0-2.829 1.172l-.728.728a2 2 0 0 1-2.701.116l-.127-.116-.728-.728A4 4 0 0 0 7.03 20H6a2 2 0 0 1-1.995-1.85L4 18v-1.03a4 4 0 0 0-1.172-2.828l-.728-.728a2 2 0 0 1-.116-2.701l.116-.127.728-.728A4 4 0 0 0 4 7.029V6a2 2 0 0 1 1.85-1.994L6 4h1.03a4 4 0 0 0 2.828-1.172zm4.493 6.883-4.244 4.244-1.768-1.768a1 1 0 0 0-1.414 1.415l2.404 2.404a1.1 1.1 0 0 0 1.556 0l4.88-4.881a1 1 0 0 0-1.414-1.414" clip-rule="evenodd"/></g><defs><clipPath id="a"><path fill="currentColor" d="M0 0h24v24H0z"/></clipPath></defs></svg>