<svg xmlns="http://www.w3.org/2000/svg" width="511" height="48" fill="none"><path fill="currentColor" d="M9.568 29v-9.312q0-.768.256-1.248.255-.495.752-.72.511-.24 1.248-.24h.88v1.152h-.672q-.607 0-.864.24-.255.24-.256.848V29zm-1.232-6.896v-1.136h4.576v1.136zm8.933 7.088q-.976 0-1.728-.32a2.95 2.95 0 0 1-1.2-.944 3.16 3.16 0 0 1-.544-1.424h1.376q.096.416.352.784.256.352.688.56.448.208 1.072.208.576 0 .944-.16.368-.176.544-.464t.176-.624q0-.48-.24-.736-.224-.256-.672-.4a7 7 0 0 0-1.072-.272 9 9 0 0 1-1.04-.256 3.8 3.8 0 0 1-.896-.416 2 2 0 0 1-.64-.64 1.8 1.8 0 0 1-.24-.944q0-.688.352-1.216a2.46 2.46 0 0 1 1.008-.848q.656-.304 1.552-.304 1.28 0 2.08.624.816.624.944 1.808h-1.328q-.064-.608-.512-.944-.448-.352-1.2-.352-.751 0-1.152.304a.97.97 0 0 0-.384.8q0 .32.208.56.225.24.656.416.432.16 1.04.288a9 9 0 0 1 1.44.384q.656.24 1.056.704.416.464.416 1.328.016.752-.368 1.312-.367.56-1.056.88-.689.304-1.632.304m5.055-4.336V23.72h6.336v1.136zm12.464 4.336q-1.135 0-1.983-.416a3.4 3.4 0 0 1-1.344-1.136 3.9 3.9 0 0 1-.608-1.632h1.311a2.5 2.5 0 0 0 .88 1.472q.69.56 1.76.56.8 0 1.36-.368.576-.384.88-1.008a3.14 3.14 0 0 0 .32-1.424q0-.832-.32-1.44a2.3 2.3 0 0 0-.88-.976 2.4 2.4 0 0 0-1.296-.352q-.927 0-1.584.4a2.46 2.46 0 0 0-.944 1.04h-1.296l.944-6.112h5.904v1.168h-4.864l-.64 3.424q.4-.464 1.073-.752.671-.304 1.552-.304.816 0 1.488.304.672.288 1.152.816.495.528.752 1.232.255.704.255 1.536 0 .8-.255 1.52a3.7 3.7 0 0 1-.769 1.28 3.6 3.6 0 0 1-1.216.864q-.703.304-1.632.304m10.31 0q-1.473 0-2.544-.72-1.056-.735-1.632-2.032-.576-1.312-.576-3.04t.576-3.024q.576-1.312 1.632-2.032 1.056-.736 2.544-.736 1.471 0 2.512.736 1.055.72 1.616 2.032.576 1.296.576 3.024t-.576 3.04q-.56 1.296-1.616 2.032-1.04.72-2.512.72m-.016-1.184q.975 0 1.728-.544.752-.56 1.184-1.584.432-1.04.432-2.48t-.432-2.464q-.432-1.04-1.184-1.584a2.87 2.87 0 0 0-1.728-.544q-.96 0-1.728.544-.753.544-1.2 1.584-.432 1.024-.432 2.464t.432 2.48q.447 1.024 1.2 1.584a2.9 2.9 0 0 0 1.728.544M138.4 29v-9.696l-1.904.464v-.944l2.352-1.024h.912V29zm8.057.192q-1.471 0-2.544-.72-1.056-.735-1.632-2.032-.576-1.312-.576-3.04t.576-3.024q.576-1.312 1.632-2.032 1.056-.736 2.544-.736 1.472 0 2.512.736 1.056.72 1.616 2.032.576 1.296.576 3.024t-.576 3.04q-.56 1.296-1.616 2.032-1.04.72-2.512.72m-.016-1.184a2.87 2.87 0 0 0 1.728-.544q.752-.56 1.184-1.584.432-1.04.432-2.48t-.432-2.464q-.432-1.04-1.184-1.584a2.87 2.87 0 0 0-1.728-.544q-.96 0-1.728.544-.752.544-1.2 1.584-.432 1.024-.432 2.464t.432 2.48q.449 1.024 1.2 1.584a2.9 2.9 0 0 0 1.728.544m6.585 4.512V20.968h1.216l.128 1.312q.256-.384.656-.72.4-.352.96-.56.56-.224 1.296-.224 1.168 0 2.032.56a3.64 3.64 0 0 1 1.36 1.504q.496.945.496 2.16t-.496 2.16a3.66 3.66 0 0 1-1.36 1.488q-.88.544-2.048.544-.977 0-1.728-.4a2.9 2.9 0 0 1-1.168-1.12v4.848zm4.08-4.496q.8 0 1.408-.368a2.57 2.57 0 0 0 .944-1.072q.352-.688.352-1.6t-.352-1.6a2.46 2.46 0 0 0-.944-1.056q-.608-.384-1.408-.384t-1.408.384q-.608.367-.944 1.056-.336.688-.336 1.6t.336 1.6.944 1.072q.608.368 1.408.368m4.823.976 2.736-4.016-2.736-4.016h1.456l2.192 3.296 2.224-3.296h1.44l-2.736 4.016L169.241 29h-1.44l-2.224-3.312L163.385 29zM217.2 29V17.8h6.928v1.104h-5.584v3.904h5.104v1.088h-5.104v4h5.584V29zm8.167 0 2.736-4.016-2.736-4.016h1.456l2.192 3.296 2.224-3.296h1.44l-2.736 4.016L232.679 29h-1.44l-2.224-3.312L226.823 29zm11.905 0q-.72 0-1.248-.224t-.816-.752q-.272-.544-.272-1.456v-4.464h-1.392v-1.136h1.392l.176-1.936h1.168v1.936h2.352v1.136h-2.352v4.464q0 .752.304 1.024.304.256 1.072.256h.864V29zm3.082 0v-8.032h1.216l.112 1.536q.272-.544.688-.928a3 3 0 0 1 1.024-.592 4 4 0 0 1 1.344-.208v1.408h-.464q-.512 0-.976.144-.464.128-.832.432-.352.288-.56.816t-.208 1.296V29zm9.146.192q-1.12 0-2-.528a3.8 3.8 0 0 1-1.392-1.472q-.496-.944-.496-2.208 0-1.28.496-2.208a3.66 3.66 0 0 1 1.376-1.472q.896-.528 2.048-.528 1.183 0 2.016.528.832.527 1.264 1.376.448.848.448 1.872v.336q0 .175-.016.4h-6.624v-1.04h5.312q-.049-1.104-.736-1.712-.673-.624-1.696-.624-.673 0-1.264.32a2.4 2.4 0 0 0-.96.896q-.352.592-.352 1.488v.448q0 .992.368 1.664.368.656.944.992.591.336 1.264.336.847 0 1.392-.368.56-.384.816-1.04h1.328q-.208.735-.688 1.312a3.5 3.5 0 0 1-1.2.896q-.705.336-1.648.336m5.542-.192v-8.032h1.216l.096 1.152a2.7 2.7 0 0 1 1.024-.992 2.9 2.9 0 0 1 1.424-.352q.623 0 1.136.176.512.16.896.512.384.336.624.864.416-.736 1.136-1.136a3.14 3.14 0 0 1 1.568-.416q.927 0 1.616.384.704.368 1.088 1.136.384.752.384 1.92V29h-1.328v-4.64q0-1.216-.496-1.824t-1.408-.608q-.624 0-1.136.336-.496.32-.784.944-.272.624-.272 1.536V29h-1.344v-4.64q0-1.216-.496-1.824t-1.408-.608q-.609 0-1.12.336-.496.32-.784.944t-.288 1.536V29zm17.817.192q-1.12 0-2-.528a3.8 3.8 0 0 1-1.392-1.472q-.496-.944-.496-2.208 0-1.28.496-2.208.496-.945 1.376-1.472.896-.528 2.048-.528 1.183 0 2.016.528.832.527 1.264 1.376a3.94 3.94 0 0 1 .448 1.872v.336q0 .175-.016.4h-6.624v-1.04h5.312q-.048-1.104-.736-1.712-.672-.624-1.696-.624a2.6 2.6 0 0 0-1.264.32 2.4 2.4 0 0 0-.96.896q-.352.592-.352 1.488v.448q0 .992.368 1.664.368.656.944.992.592.336 1.264.336.848 0 1.392-.368.56-.384.816-1.04h1.328q-.208.735-.688 1.312a3.5 3.5 0 0 1-1.2.896q-.704.336-1.648.336m13.344 0q-1.12 0-2-.528a3.8 3.8 0 0 1-1.392-1.472q-.496-.944-.496-2.208 0-1.28.496-2.208.496-.945 1.376-1.472.896-.528 2.048-.528 1.183 0 2.016.528.832.527 1.264 1.376a3.94 3.94 0 0 1 .448 1.872v.336q0 .175-.016.4h-6.624v-1.04h5.312q-.048-1.104-.736-1.712-.672-.624-1.696-.624a2.6 2.6 0 0 0-1.264.32 2.4 2.4 0 0 0-.96.896q-.352.592-.352 1.488v.448q0 .992.368 1.664.368.656.944.992.592.336 1.264.336.847 0 1.392-.368.56-.384.816-1.04h1.328q-.208.735-.688 1.312a3.5 3.5 0 0 1-1.2.896q-.704.336-1.648.336m9.126 0q-1.168 0-2.064-.544a3.9 3.9 0 0 1-1.376-1.504q-.48-.96-.48-2.176 0-1.215.48-2.16.495-.944 1.376-1.488.895-.544 2.08-.544.975 0 1.728.4.751.4 1.152 1.12V17.48h1.344V29h-1.216l-.128-1.312q-.257.384-.656.736-.384.336-.944.56a3.7 3.7 0 0 1-1.296.208m.144-1.168q.8 0 1.408-.368.624-.384.96-1.072t.336-1.6-.336-1.6a2.43 2.43 0 0 0-.96-1.056q-.609-.384-1.408-.384-.768 0-1.392.384a2.56 2.56 0 0 0-.96 1.056q-.336.688-.336 1.6t.336 1.6q.351.688.96 1.072.624.368 1.392.368m9.487 4.688q-1.088 0-1.92-.288-.833-.272-1.296-.848t-.464-1.424q0-.368.144-.784.16-.4.528-.8.384-.4 1.072-.72l.912.544q-.832.352-1.088.8t-.256.832q0 .528.304.88t.832.528q.544.176 1.232.176t1.184-.208q.496-.192.768-.544.272-.336.272-.816 0-.544-.416-.928-.416-.368-1.568-.432a16 16 0 0 1-1.6-.176 7 7 0 0 1-1.04-.256 3.6 3.6 0 0 1-.704-.352 5 5 0 0 1-.496-.4v-.368l1.552-1.552 1.168.416-1.6 1.456.208-.56q.175.128.336.24.16.096.432.176t.752.16q.48.064 1.296.128 1.088.08 1.744.384.672.305.96.816.304.511.304 1.2 0 .688-.384 1.296-.368.624-1.152 1.024t-2.016.4m-.016-6.24q-1.008 0-1.712-.368a2.7 2.7 0 0 1-1.072-1.024 2.9 2.9 0 0 1-.368-1.456q0-.8.368-1.44a2.7 2.7 0 0 1 1.072-1.024q.704-.384 1.712-.384 1.025 0 1.728.384t1.072 1.024.368 1.44-.368 1.456a2.7 2.7 0 0 1-1.072 1.024q-.703.368-1.728.368m0-1.104q.864 0 1.36-.432.512-.448.512-1.312 0-.832-.512-1.28-.496-.448-1.36-.448-.848 0-1.36.448t-.512 1.28q0 .864.512 1.312.512.432 1.36.432m1.312-3.264-.4-1.136h3.296v1.008zm7.666 7.088q-1.12 0-2-.528a3.8 3.8 0 0 1-1.392-1.472q-.496-.944-.496-2.208 0-1.28.496-2.208a3.66 3.66 0 0 1 1.376-1.472q.896-.528 2.048-.528 1.184 0 2.016.528.832.527 1.264 1.376.447.848.448 1.872v.336q0 .175-.016.4h-6.624v-1.04h5.312q-.048-1.104-.736-1.712-.673-.624-1.696-.624-.673 0-1.264.32a2.4 2.4 0 0 0-.96.896q-.352.592-.352 1.488v.448q0 .992.368 1.664.368.656.944.992.591.336 1.264.336.847 0 1.392-.368.56-.384.816-1.04h1.328q-.208.735-.688 1.312a3.5 3.5 0 0 1-1.2.896q-.705.336-1.648.336m13.439 0q-1.136 0-2.048-.528a3.86 3.86 0 0 1-1.424-1.472q-.512-.944-.512-2.208t.512-2.208q.528-.945 1.424-1.472.912-.528 2.048-.528 1.44 0 2.4.752.96.735 1.216 1.984h-1.376a1.8 1.8 0 0 0-.784-1.168q-.624-.416-1.472-.416-.687 0-1.28.352-.575.336-.944 1.024-.368.672-.368 1.68 0 .752.208 1.328.225.577.576.976.353.384.816.576.48.192.992.192.576 0 1.04-.176.465-.192.784-.544.321-.368.432-.88h1.376a3.26 3.26 0 0 1-1.232 1.984q-.96.752-2.384.752m8.133 0q-.976 0-1.632-.336-.656-.353-.976-.912a2.5 2.5 0 0 1-.32-1.232q0-.816.416-1.376.432-.576 1.2-.864.784-.304 1.824-.304h2.144q0-.752-.24-1.248a1.6 1.6 0 0 0-.672-.752q-.448-.256-1.088-.256-.768 0-1.328.384t-.688 1.136h-1.376q.096-.864.576-1.44a3.1 3.1 0 0 1 1.248-.896 4 4 0 0 1 1.568-.32q1.12 0 1.856.416.736.4 1.104 1.136.384.72.384 1.696V29h-1.2l-.08-1.424a3 3 0 0 1-.416.64q-.24.288-.576.512a2.9 2.9 0 0 1-.752.336 3.4 3.4 0 0 1-.976.128m.208-1.136q.56 0 1.008-.224.464-.24.784-.64t.48-.896q.176-.512.176-1.04v-.048h-2.032q-.768 0-1.248.192-.48.176-.688.512a1.3 1.3 0 0 0-.208.736q0 .432.192.752.208.304.592.48t.944.176m8.895 1.136q-.976 0-1.728-.32a2.96 2.96 0 0 1-1.2-.944 3.16 3.16 0 0 1-.544-1.424h1.376q.096.416.352.784.256.352.688.56.448.208 1.072.208.576 0 .944-.16.368-.176.544-.464t.176-.624q0-.48-.24-.736-.224-.256-.672-.4a7 7 0 0 0-1.072-.272 9 9 0 0 1-1.04-.256 3.8 3.8 0 0 1-.896-.416 2 2 0 0 1-.64-.64 1.8 1.8 0 0 1-.24-.944q0-.688.352-1.216a2.46 2.46 0 0 1 1.008-.848q.656-.304 1.552-.304 1.28 0 2.08.624.816.624.944 1.808h-1.328q-.064-.608-.512-.944-.448-.352-1.2-.352t-1.152.304a.97.97 0 0 0-.384.8q0 .32.208.56.224.24.656.416.432.16 1.04.288a9 9 0 0 1 1.44.384q.656.24 1.056.704.416.464.416 1.328.016.752-.368 1.312-.368.56-1.056.88-.689.304-1.632.304m8.543 0q-1.12 0-2-.528a3.8 3.8 0 0 1-1.392-1.472q-.495-.944-.496-2.208 0-1.28.496-2.208.497-.945 1.376-1.472.897-.528 2.048-.528 1.185 0 2.016.528.832.527 1.264 1.376a3.94 3.94 0 0 1 .448 1.872v.336q0 .175-.016.4h-6.624v-1.04h5.312q-.048-1.104-.736-1.712-.672-.624-1.696-.624a2.6 2.6 0 0 0-1.264.32 2.43 2.43 0 0 0-.96.896q-.351.592-.352 1.488v.448q0 .992.368 1.664.369.656.944.992.592.336 1.264.336.849 0 1.392-.368a2.2 2.2 0 0 0 .816-1.04h1.328a3.5 3.5 0 0 1-.688 1.312 3.5 3.5 0 0 1-1.2.896q-.703.336-1.648.336m12.656 2.128a10.9 10.9 0 0 1-1.6-1.984 10.5 10.5 0 0 1-1.184-2.56q-.432-1.424-.432-3.104t.432-3.104q.448-1.425 1.184-2.576a10.4 10.4 0 0 1 1.6-1.968h1.376v.128a11.5 11.5 0 0 0-1.712 2.144q-.72 1.184-1.136 2.544-.4 1.344-.4 2.832t.4 2.848a10.8 10.8 0 0 0 1.152 2.528 12 12 0 0 0 1.696 2.144v.128zm3.185-2.32V17.8h1.344v10.128h5.216V29zm11.534.192q-1.12 0-2-.528a3.8 3.8 0 0 1-1.392-1.472q-.495-.944-.496-2.208 0-1.28.496-2.208.497-.945 1.376-1.472.897-.528 2.048-.528 1.185 0 2.016.528.832.527 1.264 1.376a3.94 3.94 0 0 1 .448 1.872v.336q0 .175-.016.4h-6.624v-1.04h5.312q-.048-1.104-.736-1.712-.672-.624-1.696-.624a2.6 2.6 0 0 0-1.264.32 2.43 2.43 0 0 0-.96.896q-.351.592-.352 1.488v.448q0 .992.368 1.664.369.656.944.992.592.336 1.264.336.849 0 1.392-.368a2.2 2.2 0 0 0 .816-1.04h1.328a3.5 3.5 0 0 1-.688 1.312 3.5 3.5 0 0 1-1.2.896q-.703.336-1.648.336m8.679 3.52q-1.088 0-1.92-.288-.831-.272-1.296-.848-.464-.576-.464-1.424 0-.368.144-.784.16-.4.528-.8.384-.4 1.072-.72l.912.544q-.831.352-1.088.8-.255.448-.256.832 0 .528.304.88t.832.528a4 4 0 0 0 1.232.176q.689 0 1.184-.208.497-.192.768-.544.272-.336.272-.816 0-.544-.416-.928-.416-.368-1.568-.432a16 16 0 0 1-1.6-.176 7 7 0 0 1-1.04-.256 3.6 3.6 0 0 1-.704-.352 5 5 0 0 1-.496-.4v-.368l1.552-1.552 1.168.416-1.6 1.456.208-.56.336.24q.16.096.432.176t.752.16q.48.064 1.296.128 1.089.08 1.744.384.672.305.96.816.304.511.304 1.2 0 .688-.384 1.296-.368.624-1.152 1.024t-2.016.4m-.016-6.24q-1.007 0-1.712-.368a2.7 2.7 0 0 1-1.072-1.024 2.9 2.9 0 0 1-.368-1.456q0-.8.368-1.44a2.7 2.7 0 0 1 1.072-1.024q.704-.384 1.712-.384 1.025 0 1.728.384.705.384 1.072 1.024t.368 1.44-.368 1.456a2.7 2.7 0 0 1-1.072 1.024q-.703.368-1.728.368m0-1.104q.865 0 1.36-.432.512-.448.512-1.312 0-.832-.512-1.28-.495-.448-1.36-.448-.847 0-1.36.448-.512.448-.512 1.28 0 .864.512 1.312.513.432 1.36.432m1.312-3.264-.4-1.136h3.296v1.008zm7.067 7.088q-.976 0-1.633-.336-.656-.353-.975-.912a2.5 2.5 0 0 1-.32-1.232q0-.816.416-1.376.432-.576 1.2-.864.783-.304 1.824-.304h2.144q0-.752-.24-1.248a1.6 1.6 0 0 0-.672-.752q-.449-.256-1.088-.256-.768 0-1.328.384t-.688 1.136h-1.376q.096-.864.576-1.44.495-.592 1.248-.896a4 4 0 0 1 1.568-.32q1.12 0 1.856.416.735.4 1.104 1.136.384.72.384 1.696V29h-1.2l-.08-1.424a3 3 0 0 1-.416.64q-.24.288-.576.512-.32.208-.752.336a3.4 3.4 0 0 1-.976.128m.208-1.136q.56 0 1.008-.224.463-.24.784-.64.32-.4.48-.896.176-.512.176-1.04v-.048h-2.032q-.768 0-1.248.192-.48.176-.688.512a1.3 1.3 0 0 0-.208.736q0 .432.192.752.207.304.592.48.383.176.944.176m5.855.944V17.48h1.344V29zm2.906 1.52 4.016-13.744h1.328l-4.016 13.744zm7.908-1.52V17.8h6.816v1.104h-5.472v3.936h4.656v1.088h-4.656V29zm8.611 0v-8.032h1.344V29zm.672-9.76a.94.94 0 0 1-.672-.256.94.94 0 0 1-.256-.672q0-.4.256-.64a.94.94 0 0 1 .672-.256q.384 0 .656.256.272.24.272.64t-.272.672a.92.92 0 0 1-.656.256m3.012 9.76v-8.032h1.216l.08 1.408a2.8 2.8 0 0 1 1.088-1.168 3.1 3.1 0 0 1 1.632-.432q.943 0 1.632.368.688.368 1.072 1.136t.384 1.936V29h-1.344v-4.64q0-1.216-.528-1.824t-1.52-.608q-.672 0-1.216.336-.528.32-.848.944-.304.624-.304 1.52V29zm12.724.192q-1.12 0-2-.528a3.8 3.8 0 0 1-1.392-1.472q-.496-.944-.496-2.208 0-1.28.496-2.208.496-.945 1.376-1.472.896-.528 2.048-.528 1.184 0 2.016.528.832.527 1.264 1.376a3.94 3.94 0 0 1 .448 1.872v.336q0 .175-.016.4h-6.624v-1.04h5.312q-.048-1.104-.736-1.712-.672-.624-1.696-.624a2.6 2.6 0 0 0-1.264.32 2.4 2.4 0 0 0-.96.896q-.352.592-.352 1.488v.448q0 .992.368 1.664.368.656.944.992.592.336 1.264.336.847 0 1.392-.368.56-.384.816-1.04h1.328q-.208.735-.688 1.312a3.5 3.5 0 0 1-1.2.896q-.704.336-1.648.336m9.792 3.328V20.968h1.216l.128 1.312q.255-.384.656-.72a3 3 0 0 1 .96-.56q.56-.224 1.296-.224 1.168 0 2.032.56.88.544 1.36 1.504.495.945.496 2.16 0 1.215-.496 2.16a3.67 3.67 0 0 1-1.36 1.488q-.88.544-2.048.544-.976 0-1.728-.4a2.9 2.9 0 0 1-1.168-1.12v4.848zm4.08-4.496q.8 0 1.408-.368a2.57 2.57 0 0 0 .944-1.072q.351-.688.352-1.6 0-.912-.352-1.6a2.46 2.46 0 0 0-.944-1.056q-.609-.384-1.408-.384-.8 0-1.408.384-.608.367-.944 1.056-.336.688-.336 1.6t.336 1.6q.335.688.944 1.072.607.368 1.408.368m5.951.976v-8.032h1.216l.112 1.536q.272-.544.688-.928a3 3 0 0 1 1.024-.592 4 4 0 0 1 1.344-.208v1.408h-.464q-.512 0-.976.144-.464.128-.832.432-.352.288-.56.816t-.208 1.296V29zm6.035 0v-8.032h1.344V29zm.672-9.76a.94.94 0 0 1-.672-.256.94.94 0 0 1-.256-.672q0-.4.256-.64a.94.94 0 0 1 .672-.256q.383 0 .656.256.272.24.272.64t-.272.672a.92.92 0 0 1-.656.256m3.012 9.76v-8.032h1.216l.08 1.408q.383-.751 1.088-1.168a3.1 3.1 0 0 1 1.632-.432q.944 0 1.632.368t1.072 1.136.384 1.936V29h-1.344v-4.64q0-1.216-.528-1.824t-1.52-.608q-.673 0-1.216.336-.528.32-.848.944-.304.624-.304 1.52V29zm12.34 0q-.72 0-1.248-.224t-.816-.752q-.272-.544-.272-1.456v-4.464h-1.392v-1.136h1.392l.175-1.936h1.169v1.936h2.352v1.136h-2.352v4.464q0 .752.304 1.024.304.256 1.072.256h.864V29zm3.962 2.32h-1.376v-.128q.976-.96 1.696-2.144.735-1.184 1.136-2.528a9.7 9.7 0 0 0 .416-2.848q0-1.488-.416-2.832a10.3 10.3 0 0 0-1.136-2.544 11 11 0 0 0-1.696-2.144v-.128h1.376q.88.816 1.6 1.968.736 1.152 1.168 2.576.447 1.425.448 3.104 0 1.68-.448 3.104a10 10 0 0 1-1.168 2.56q-.72 1.153-1.6 1.984"/></svg>