<svg xmlns="http://www.w3.org/2000/svg" width="338" height="48" fill="none"><path fill="currentColor" d="M0 16C0 7.163 7.163 0 16 0h306c8.837 0 16 7.163 16 16v16c0 8.837-7.163 16-16 16H16C7.163 48 0 40.837 0 32z"/><path stroke="currentColor" stroke-linecap="round" stroke-linejoin="round" stroke-width="1.5" d="M110.5 16.5v15M118 24h-15"/><path fill="currentColor" d="M138.784 29.168q-1.064 0-1.89-.378a3 3 0 0 1-1.288-1.078q-.462-.7-.476-1.666h1.778q0 .49.224.882.238.378.644.602.42.224 1.008.224.504 0 .868-.154.378-.168.574-.462.21-.308.21-.714 0-.462-.224-.756a1.7 1.7 0 0 0-.588-.518 4.7 4.7 0 0 0-.868-.364 131 131 0 0 0-1.036-.35q-1.162-.392-1.75-.994-.588-.616-.588-1.638 0-.855.406-1.47.406-.616 1.134-.952.742-.35 1.708-.35.98 0 1.708.35.742.35 1.162.98.434.615.448 1.484h-1.792a1.4 1.4 0 0 0-.196-.672 1.35 1.35 0 0 0-.532-.518q-.336-.21-.826-.21-.42-.015-.756.14a1.2 1.2 0 0 0-.518.42q-.182.266-.182.672 0 .391.168.658.182.252.518.434.336.168.784.322l.98.336q.728.238 1.316.588.602.336.952.882t.35 1.414q0 .756-.392 1.414-.392.645-1.148 1.05-.756.392-1.89.392m7.626 0q-.855 0-1.47-.336a2.27 2.27 0 0 1-.924-1.036q-.322-.7-.322-1.722v-4.13h1.68v3.962q0 .91.378 1.386.392.462 1.176.462.504 0 .896-.238.405-.238.63-.686.238-.462.238-1.12v-3.766h1.68V29h-1.484l-.126-1.176q-.323.615-.938.98-.603.364-1.414.364m9.863 0q-.561 0-1.008-.154a2.6 2.6 0 0 1-.784-.392 2.6 2.6 0 0 1-.56-.602l-.182.98h-1.498V18.92h1.68v4.06q.336-.518.91-.854.573-.35 1.428-.35.994 0 1.75.49a3.3 3.3 0 0 1 1.204 1.316q.448.825.448 1.904 0 1.05-.434 1.89a3.3 3.3 0 0 1-1.204 1.316q-.756.476-1.75.476m-.35-1.456q.588 0 1.05-.28.462-.294.714-.784.266-.504.266-1.176 0-.658-.266-1.162a1.88 1.88 0 0 0-.714-.784 2 2 0 0 0-1.05-.28 2 2 0 0 0-1.064.28 2 2 0 0 0-.714.784 2.6 2.6 0 0 0-.252 1.162q0 .672.252 1.176.266.49.714.784.461.28 1.064.28m8.183 1.456q-.939 0-1.638-.294a2.76 2.76 0 0 1-1.092-.84 2.5 2.5 0 0 1-.462-1.246h1.68q.069.294.252.546.181.238.49.378.321.14.756.14.42 0 .686-.112a.9.9 0 0 0 .392-.322.76.76 0 0 0 .126-.42q0-.336-.182-.518-.183-.182-.532-.28a7 7 0 0 0-.812-.21 11 11 0 0 1-.98-.238 4.3 4.3 0 0 1-.84-.378 1.8 1.8 0 0 1-.588-.574q-.21-.35-.21-.854 0-.616.322-1.106.336-.49.952-.77.63-.294 1.498-.294 1.231 0 1.96.574.742.56.868 1.582h-1.596a.87.87 0 0 0-.392-.602q-.323-.224-.854-.224-.546 0-.84.21a.62.62 0 0 0-.28.532q0 .21.168.392.182.168.518.294.336.113.826.224.783.154 1.386.364.601.21.952.616.35.405.35 1.148.013.672-.35 1.19a2.34 2.34 0 0 1-.994.812q-.645.28-1.54.28m7.86 0q-1.037 0-1.862-.462a3.4 3.4 0 0 1-1.274-1.302q-.448-.84-.448-1.904 0-1.105.448-1.932.461-.84 1.274-1.316.826-.476 1.876-.476 1.315 0 2.212.7.896.686 1.148 1.89h-1.764a1.43 1.43 0 0 0-.588-.84 1.75 1.75 0 0 0-1.036-.308q-.519 0-.952.266-.42.266-.672.77-.238.504-.238 1.218 0 .546.14.966a2.1 2.1 0 0 0 .392.714q.266.28.602.434t.728.154q.405 0 .728-.126.335-.14.56-.406.237-.266.336-.63h1.764q-.252 1.176-1.148 1.89-.897.7-2.226.7m4.993-.168v-7.056h1.498l.154 1.316q.252-.462.63-.784.378-.336.882-.518a3.4 3.4 0 0 1 1.134-.182v1.778h-.588q-.42 0-.798.112a1.6 1.6 0 0 0-.658.336q-.266.225-.42.63-.154.392-.154.994V29zm5.635 0v-7.056h1.68V29zm.84-8.176a1.1 1.1 0 0 1-.77-.28.97.97 0 0 1-.294-.714q0-.435.294-.7a1.1 1.1 0 0 1 .77-.28q.462 0 .756.28.308.265.308.7 0 .42-.308.714-.294.28-.756.28m6.813 8.344q-.56 0-1.008-.154a2.6 2.6 0 0 1-.784-.392 2.6 2.6 0 0 1-.56-.602l-.182.98h-1.498V18.92h1.68v4.06q.336-.518.91-.854.575-.35 1.428-.35.994 0 1.75.49.77.476 1.204 1.316.448.825.448 1.904 0 1.05-.434 1.89-.433.84-1.204 1.316-.756.476-1.75.476m-.35-1.456q.588 0 1.05-.28.462-.294.714-.784.267-.504.266-1.176 0-.658-.266-1.162a1.88 1.88 0 0 0-.714-.784 2 2 0 0 0-1.05-.28q-.602 0-1.064.28a2 2 0 0 0-.714.784 2.6 2.6 0 0 0-.252 1.162q0 .672.252 1.176.267.49.714.784.462.28 1.064.28m8.673 1.456q-1.05 0-1.848-.448a3.25 3.25 0 0 1-1.246-1.288q-.448-.825-.448-1.904 0-1.12.434-1.96a3.3 3.3 0 0 1 1.246-1.316q.812-.476 1.876-.476 1.037 0 1.806.462t1.19 1.246q.42.77.42 1.736v.308q0 .168-.028.35h-5.74V24.8h4.074q-.028-.77-.518-1.204-.49-.448-1.218-.448-.518 0-.952.238a1.7 1.7 0 0 0-.686.714q-.252.462-.252 1.176v.406q0 .659.238 1.134.252.476.672.728.433.238.966.238.588 0 .966-.252.392-.252.574-.672h1.708a3.3 3.3 0 0 1-.644 1.19q-.448.517-1.106.826a3.6 3.6 0 0 1-1.484.294"/><path stroke="currentColor" stroke-linecap="round" stroke-linejoin="round" stroke-width="1.5" d="M227.5 16.5v15M235 24h-15"/></svg>