<svg xmlns="http://www.w3.org/2000/svg" width="704" height="42" fill="none"><path fill="currentColor" d="M11.276 26v-8.442H8.392V16.2h7.434v1.358h-2.884V26zm7.911.168a3.6 3.6 0 0 1-1.82-.462 3.45 3.45 0 0 1-1.26-1.302q-.448-.84-.448-1.918 0-1.105.462-1.932.462-.84 1.26-1.302a3.53 3.53 0 0 1 1.82-.476q1.008 0 1.806.476.811.462 1.26 1.288.462.826.462 1.932t-.462 1.932-1.274 1.302q-.798.462-1.806.462m0-1.442q.505 0 .91-.252.42-.252.672-.756t.252-1.246-.252-1.232a1.7 1.7 0 0 0-1.568-1.008q-.49 0-.91.252a1.8 1.8 0 0 0-.672.756q-.252.49-.252 1.232t.252 1.246.658.756q.42.252.91.252M28.924 26l-3.122-3.864 2.8-3.192h2.002l-3.486 3.878V21.52L31.024 26zm-4.55 0V15.92h1.68V26zm10.522.168q-1.05 0-1.848-.448a3.25 3.25 0 0 1-1.246-1.288q-.447-.825-.448-1.904 0-1.12.434-1.96.448-.84 1.246-1.316.813-.476 1.876-.476 1.036 0 1.806.462t1.19 1.246q.42.77.42 1.736v.308q0 .168-.028.35h-5.74V21.8h4.074q-.027-.77-.518-1.204-.489-.448-1.218-.448-.517 0-.952.238t-.686.714q-.252.462-.252 1.176v.406q0 .659.238 1.134.252.476.672.728.435.238.966.238.588 0 .966-.252.393-.252.574-.672h1.708q-.195.658-.644 1.19-.447.517-1.106.826a3.6 3.6 0 0 1-1.484.294M39.877 26v-7.056h1.484l.127 1.176q.321-.615.923-.98.603-.364 1.428-.364.855 0 1.456.364.603.35.924 1.036.337.686.337 1.708V26h-1.68v-3.962q0-.881-.392-1.358-.393-.476-1.163-.476-.503 0-.91.238a1.7 1.7 0 0 0-.63.7q-.224.448-.224 1.092V26zm11.924 0v-9.8h1.68l4.718 7.084V16.2h1.68V26h-1.68l-4.718-7.07V26zm12.344.168q-.867 0-1.441-.294t-.855-.784a2.1 2.1 0 0 1-.28-1.064q0-.672.337-1.162.35-.49 1.022-.756.672-.28 1.651-.28h1.779q0-.56-.154-.924a1.1 1.1 0 0 0-.476-.56q-.322-.182-.826-.182-.575 0-.98.266-.407.252-.505.784h-1.651q.084-.756.504-1.288a2.7 2.7 0 0 1 1.105-.84 3.75 3.75 0 0 1 1.526-.308q.994 0 1.695.35.699.335 1.063.98.378.63.378 1.526V26H66.61l-.167-1.134q-.14.28-.364.518-.21.238-.49.42-.28.168-.644.266-.35.098-.799.098m.379-1.33q.405 0 .713-.14.322-.154.547-.42.238-.28.363-.616.126-.336.168-.714v-.028h-1.553q-.49 0-.812.126-.323.113-.463.336a.96.96 0 0 0-.14.518q0 .294.14.504t.407.322.63.112M69.832 26v-7.056h1.485l.14.966a2.34 2.34 0 0 1 .882-.826 2.6 2.6 0 0 1 1.273-.308q.532 0 .953.14.433.14.755.42.337.28.547.7.391-.588 1.021-.924a2.9 2.9 0 0 1 1.372-.336q.882 0 1.498.364.617.35.939 1.05.321.686.322 1.694V26h-1.666v-3.948q0-.896-.364-1.372-.365-.476-1.079-.476-.489 0-.867.238a1.6 1.6 0 0 0-.575.7q-.21.448-.21 1.106V26h-1.665v-3.948q0-.896-.365-1.372-.363-.476-1.091-.476-.462 0-.84.238a1.6 1.6 0 0 0-.575.7q-.21.448-.21 1.106V26zm16.266.168q-1.05 0-1.849-.448a3.24 3.24 0 0 1-1.245-1.288q-.45-.825-.449-1.904 0-1.12.434-1.96.45-.84 1.246-1.316.813-.476 1.877-.476 1.035 0 1.806.462.77.462 1.19 1.246.42.77.42 1.736v.308q0 .168-.029.35h-5.74V21.8h4.075q-.03-.77-.519-1.204-.489-.448-1.218-.448-.518 0-.951.238-.435.238-.686.714-.252.462-.252 1.176v.406q0 .659.237 1.134.253.476.673.728.433.238.966.238.587 0 .965-.252.392-.252.575-.672h1.708q-.197.658-.644 1.19-.45.517-1.106.826a3.6 3.6 0 0 1-1.484.294m54.186 0q-1.064 0-1.89-.378a3 3 0 0 1-1.288-1.078q-.462-.7-.476-1.666h1.778q0 .49.224.882.238.378.644.602.42.224 1.008.224.504 0 .868-.154.378-.168.574-.462.21-.308.21-.714 0-.462-.224-.756a1.7 1.7 0 0 0-.588-.518 4.7 4.7 0 0 0-.868-.364 131 131 0 0 0-1.036-.35q-1.162-.392-1.75-.994-.588-.616-.588-1.638 0-.855.406-1.47.406-.616 1.134-.952.742-.35 1.708-.35.98 0 1.708.35.742.35 1.162.98.434.615.448 1.484h-1.792a1.4 1.4 0 0 0-.196-.672 1.35 1.35 0 0 0-.532-.518q-.336-.21-.826-.21-.42-.015-.756.14a1.2 1.2 0 0 0-.518.42q-.182.266-.182.672 0 .391.168.658.182.252.518.434.336.168.784.322l.98.336q.728.238 1.316.588.602.336.952.882t.35 1.414q0 .756-.392 1.414-.392.645-1.148 1.05-.756.392-1.89.392m5.078-.168v-7.056h1.68V26zm.84-8.176a1.1 1.1 0 0 1-.77-.28.97.97 0 0 1-.294-.714q0-.435.294-.7a1.1 1.1 0 0 1 .77-.28q.462 0 .756.28.308.265.308.7 0 .42-.308.714-.294.28-.756.28M148.521 26v-1.358l3.654-4.298h-3.598v-1.4h5.53v1.358l-3.696 4.312h3.766V26zm10.506.168q-1.05 0-1.848-.448a3.25 3.25 0 0 1-1.246-1.288q-.448-.825-.448-1.904 0-1.12.434-1.96a3.3 3.3 0 0 1 1.246-1.316q.812-.476 1.876-.476 1.036 0 1.806.462t1.19 1.246q.42.77.42 1.736v.308q0 .168-.028.35h-5.74V21.8h4.074q-.028-.77-.518-1.204-.49-.448-1.218-.448-.518 0-.952.238a1.7 1.7 0 0 0-.686.714q-.252.462-.252 1.176v.406q0 .659.238 1.134.252.476.672.728.433.238.966.238.588 0 .966-.252.392-.252.574-.672h1.708a3.3 3.3 0 0 1-.644 1.19q-.448.517-1.106.826a3.6 3.6 0 0 1-1.484.294M218.968 26l-2.604-9.8h1.792l1.834 7.882 2.128-7.882h1.862l2.058 7.896 1.848-7.896h1.806l-2.674 9.8h-1.988l-2.016-7.42-2.072 7.42zm14.577.168q-1.05 0-1.848-.448a3.24 3.24 0 0 1-1.246-1.288q-.448-.825-.448-1.904 0-1.12.434-1.96.447-.84 1.246-1.316.811-.476 1.876-.476 1.035 0 1.806.462.77.462 1.19 1.246.42.77.42 1.736v.308q0 .168-.028.35h-5.74V21.8h4.074q-.029-.77-.518-1.204-.49-.448-1.218-.448-.519 0-.952.238-.434.238-.686.714-.252.462-.252 1.176v.406q0 .659.238 1.134.252.476.672.728.433.238.966.238.588 0 .966-.252.391-.252.574-.672h1.708a3.3 3.3 0 0 1-.644 1.19q-.449.517-1.106.826a3.6 3.6 0 0 1-1.484.294m5.051-.168v-7.056h1.68V26zm.84-8.176a1.1 1.1 0 0 1-.77-.28.97.97 0 0 1-.294-.714q0-.435.294-.7a1.1 1.1 0 0 1 .77-.28q.462 0 .756.28.308.265.308.7 0 .42-.308.714-.294.28-.756.28m5.749 11.424q-.994 0-1.75-.252-.742-.238-1.162-.742-.405-.49-.406-1.232 0-.434.21-.854.225-.406.658-.756a4.2 4.2 0 0 1 1.134-.63l.742.812q-.672.238-.938.574t-.266.686q0 .364.224.602.239.252.63.378.406.126.91.126.49 0 .854-.14.365-.126.56-.364.21-.238.21-.574a.88.88 0 0 0-.294-.686q-.294-.252-1.162-.308a14 14 0 0 1-1.302-.154 8 8 0 0 1-.966-.252 4 4 0 0 1-.672-.308 3 3 0 0 1-.462-.364v-.322l1.47-1.54 1.246.406-1.652 1.61.434-.812q.14.098.28.182.155.084.378.154.238.056.616.112t.98.112q.938.07 1.526.336.589.265.868.714.28.448.28 1.078 0 .615-.35 1.162-.336.546-1.036.896t-1.792.35m0-5.362q-.881 0-1.526-.336a2.5 2.5 0 0 1-.966-.924 2.55 2.55 0 0 1-.336-1.288q0-.714.336-1.288t.966-.924q.644-.35 1.526-.35t1.512.35.966.924.336 1.288q0 .7-.336 1.288-.336.574-.966.924-.63.336-1.512.336m0-1.302q.603 0 .966-.322.364-.322.364-.924t-.364-.91q-.363-.322-.966-.322-.602 0-.98.322-.378.308-.378.91t.378.924.98.322m1.162-2.408-.322-1.232h2.898v1.05zm4.06 5.824V15.92h1.68v4.116a2.54 2.54 0 0 1 .952-.91q.602-.35 1.358-.35.867 0 1.47.364.601.35.91 1.05.322.685.322 1.722V26h-1.666v-3.934q0-.91-.392-1.386-.379-.476-1.162-.476-.505 0-.91.252a1.67 1.67 0 0 0-.644.7q-.238.448-.238 1.106V26zm11.542 0q-.714 0-1.246-.224a1.7 1.7 0 0 1-.812-.742q-.294-.518-.294-1.4v-3.276h-1.204v-1.414h1.204l.196-1.862h1.484v1.862h1.918v1.414h-1.918v3.276q0 .532.224.742.238.195.784.196h.868V26zm43.045 0v-9.8h1.68v8.484h4.368V26zm7.698 0v-7.056h1.68V26zm.84-8.176a1.1 1.1 0 0 1-.77-.28.97.97 0 0 1-.294-.714q0-.435.294-.7a1.1 1.1 0 0 1 .77-.28q.462 0 .756.28.308.265.308.7 0 .42-.308.714-.294.28-.756.28M316.313 26v-7.056h1.484l.126 1.176a2.46 2.46 0 0 1 .924-.98q.601-.364 1.428-.364.854 0 1.456.364.601.35.924 1.036.336.686.336 1.708V26h-1.68v-3.962q0-.881-.392-1.358-.392-.476-1.162-.476-.504 0-.91.238a1.7 1.7 0 0 0-.63.7q-.224.448-.224 1.092V26zm11.753.168q-1.05 0-1.848-.448a3.25 3.25 0 0 1-1.246-1.288q-.447-.825-.448-1.904 0-1.12.434-1.96a3.3 3.3 0 0 1 1.246-1.316q.813-.476 1.876-.476 1.036 0 1.806.462t1.19 1.246q.42.77.42 1.736v.308q0 .168-.028.35h-5.74V21.8h4.074q-.027-.77-.518-1.204-.489-.448-1.218-.448-.517 0-.952.238a1.7 1.7 0 0 0-.686.714q-.252.462-.252 1.176v.406q0 .659.238 1.134.252.476.672.728.435.238.966.238.588 0 .966-.252a1.5 1.5 0 0 0 .574-.672h1.708q-.195.658-.644 1.19-.447.517-1.106.826a3.6 3.6 0 0 1-1.484.294M342.709 26v-9.8h1.68V26zm-6.188 0v-9.8h1.68V26zm1.428-4.312v-1.372h5.082v1.372zm11.678 4.48q-1.05 0-1.848-.448a3.24 3.24 0 0 1-1.246-1.288q-.448-.825-.448-1.904 0-1.12.434-1.96.447-.84 1.246-1.316.811-.476 1.876-.476 1.035 0 1.806.462.77.462 1.19 1.246.42.77.42 1.736v.308q0 .168-.028.35h-5.74V21.8h4.074q-.029-.77-.518-1.204-.49-.448-1.218-.448-.519 0-.952.238-.435.238-.686.714-.252.462-.252 1.176v.406q0 .659.238 1.134.252.476.672.728.433.238.966.238.588 0 .966-.252.391-.252.574-.672h1.708a3.3 3.3 0 0 1-.644 1.19q-.449.517-1.106.826a3.6 3.6 0 0 1-1.484.294m5.051-.168v-7.056h1.68V26zm.84-8.176a1.1 1.1 0 0 1-.77-.28.97.97 0 0 1-.294-.714q0-.435.294-.7a1.1 1.1 0 0 1 .77-.28q.462 0 .756.28.308.265.308.7 0 .42-.308.714-.294.28-.756.28m5.749 11.424q-.993 0-1.75-.252-.742-.238-1.162-.742-.406-.49-.406-1.232 0-.434.21-.854.225-.406.658-.756a4.2 4.2 0 0 1 1.134-.63l.742.812q-.671.238-.938.574t-.266.686q0 .364.224.602.238.252.63.378.406.126.91.126.49 0 .854-.14.365-.126.56-.364.21-.238.21-.574a.88.88 0 0 0-.294-.686q-.294-.252-1.162-.308a14 14 0 0 1-1.302-.154 8 8 0 0 1-.966-.252 4 4 0 0 1-.672-.308 3 3 0 0 1-.462-.364v-.322l1.47-1.54 1.246.406-1.652 1.61.434-.812q.14.098.28.182.154.084.378.154.238.056.616.112t.98.112q.939.07 1.526.336.589.265.868.714.28.448.28 1.078 0 .615-.35 1.162-.336.546-1.036.896t-1.792.35m0-5.362q-.882 0-1.526-.336a2.5 2.5 0 0 1-.966-.924 2.55 2.55 0 0 1-.336-1.288q0-.714.336-1.288t.966-.924q.644-.35 1.526-.35t1.512.35.966.924.336 1.288q0 .7-.336 1.288-.336.574-.966.924-.63.336-1.512.336m0-1.302q.603 0 .966-.322.364-.322.364-.924t-.364-.91q-.363-.322-.966-.322-.602 0-.98.322-.378.308-.378.91t.378.924.98.322m1.162-2.408-.322-1.232h2.898v1.05zm4.06 5.824V15.92h1.68v4.116a2.54 2.54 0 0 1 .952-.91q.602-.35 1.358-.35.867 0 1.47.364.601.35.91 1.05.322.685.322 1.722V26h-1.666v-3.934q0-.91-.392-1.386-.379-.476-1.162-.476-.504 0-.91.252a1.67 1.67 0 0 0-.644.7q-.238.448-.238 1.106V26zm11.542 0q-.714 0-1.246-.224a1.7 1.7 0 0 1-.812-.742q-.294-.518-.294-1.4v-3.276h-1.204v-1.414h1.204l.196-1.862h1.484v1.862h1.918v1.414h-1.918v3.276q0 .532.224.742.238.195.784.196h.868V26zm38.963 0v-9.8h3.514q1.162 0 1.918.406.77.392 1.134 1.064.378.658.378 1.498 0 .784-.364 1.456-.365.672-1.134 1.078-.77.405-1.974.406h-1.792V26zm5.11 0-2.058-4.326h1.82L424.022 26zm-3.43-5.138h1.722q.938 0 1.372-.448.448-.462.448-1.204 0-.728-.434-1.162-.433-.448-1.386-.448h-1.722zm9.812 5.306a3.6 3.6 0 0 1-1.82-.462 3.45 3.45 0 0 1-1.26-1.302q-.448-.84-.448-1.918 0-1.105.462-1.932.462-.84 1.26-1.302a3.53 3.53 0 0 1 1.82-.476q1.008 0 1.806.476.811.462 1.26 1.288.462.826.462 1.932t-.462 1.932-1.274 1.302q-.798.462-1.806.462m0-1.442q.504 0 .91-.252.42-.252.672-.756t.252-1.246-.252-1.232a1.7 1.7 0 0 0-.658-.756 1.7 1.7 0 0 0-.91-.252q-.49 0-.91.252a1.8 1.8 0 0 0-.672.756q-.252.49-.252 1.232t.252 1.246.658.756q.42.252.91.252M433.672 26V15.92h1.68V26zm6.859.168q-1.05 0-1.848-.448a3.25 3.25 0 0 1-1.246-1.288q-.448-.825-.448-1.904 0-1.12.434-1.96a3.3 3.3 0 0 1 1.246-1.316q.812-.476 1.876-.476 1.036 0 1.806.462t1.19 1.246q.42.77.42 1.736v.308q0 .168-.028.35h-5.74V21.8h4.074q-.028-.77-.518-1.204-.49-.448-1.218-.448-.518 0-.952.238a1.7 1.7 0 0 0-.686.714q-.252.462-.252 1.176v.406q0 .659.238 1.134.252.476.672.728.433.238.966.238.588 0 .966-.252.392-.252.574-.672h1.708a3.3 3.3 0 0 1-.644 1.19q-.448.517-1.106.826a3.6 3.6 0 0 1-1.484.294"/></svg>