<svg xmlns="http://www.w3.org/2000/svg" width="24" height="24" fill="none"><path fill="currentColor" d="M12 21.333c-5.144 0-9.333-4.189-9.333-9.333S6.856 2.667 12 2.667 21.333 6.856 21.333 12 17.144 21.333 12 21.333"/><path fill="currentColor" d="M12 2.667c5.144 0 9.333 4.189 9.333 9.333S17.144 21.333 12 21.333 2.667 17.149 2.667 12c0-5.15 4.189-9.333 9.333-9.333M12 0C5.374 0 0 5.374 0 12c0 6.625 5.374 12 12 12 6.625 0 12-5.375 12-12 0-6.626-5.375-12-12-12"/><path fill="currentColor" d="M13.731 15.258c.46-.265.82-.656 1.09-1.166h2.563c-.375 1.14-1.026 2.031-1.962 2.662q-1.403.952-3.272.95c-1.246 0-2.402-.344-3.368-1.03q-1.45-1.028-2.007-2.762h-1.36v-1.327h1.1c-.02-.255-.03-.45-.03-.575q0-.224.03-.605h-1.1v-1.327H6.79c.376-1.15 1.041-2.071 2.007-2.752S10.879 6.3 12.15 6.3c1.27 0 2.337.32 3.272.961.936.64 1.587 1.526 1.962 2.657h-2.562c-.265-.51-.63-.9-1.091-1.16s-.99-.391-1.601-.391q-.976 0-1.737.45c-.505.3-.9.721-1.176 1.266h3.073v1.327H8.817c-.02.255-.035.46-.035.605q-.001.194.035.575h3.473v1.327H9.202q.412.816 1.186 1.28.772.466 1.747.466c.61 0 1.14-.135 1.601-.4z"/><path fill="currentColor" d="M19.8 15.6h-3c-.33 0-.6.27-.6.6s.27.6.6.6h1.554l-2.58 2.58a.59.59 0 0 0-.012.846.6.6 0 0 0 .846.012l2.592-2.592V19.2c0 .33.27.6.6.6s.6-.27.6-.6v-3c0-.33-.27-.6-.6-.6"/><path fill="currentColor" d="M18 12q-.62.002-1.212.12c-.288.06-.564.144-.828.24-.114.042-.228.078-.336.126A6.002 6.002 0 0 0 18 24a6 6 0 0 0 4.524-2.064A5.97 5.97 0 0 0 24 18c0-3.312-2.688-6-6-6m2.4 7.2c0 .33-.27.6-.6.6s-.6-.27-.6-.6v-1.554l-2.592 2.592a.603.603 0 0 1-.846-.012.603.603 0 0 1 .012-.846l2.58-2.58H16.8c-.33 0-.6-.27-.6-.6s.27-.6.6-.6h3c.33 0 .6.27.6.6z"/></svg>