<svg xmlns="http://www.w3.org/2000/svg" width="24" height="24" fill="none"><path fill="currentColor" fill-rule="evenodd" d="M2.6 2.584c-.21.104-.38.27-.492.476-.12.224-.12.656 0 .883.113.212.239.322 1.198 1.037l.804.6 1.386 6.02c1.12 4.862 1.41 6.07 1.512 6.28.26.539.843.978 1.432 1.079.183.031 1.61.041 4.8.033l4.54-.012.164-.088c.19-.102.403-.33.48-.518.072-.169.072-.58 0-.748a1.2 1.2 0 0 0-.48-.518l-.164-.088-4.49-.011-4.49-.01-.022-.093-.134-.558-.111-.465.163-.022c.09-.012 1.8-.156 3.799-.322 1.999-.165 3.772-.328 3.94-.363a5.02 5.02 0 0 0 3.846-3.692c.103-.415.566-4.107.565-4.504a1.98 1.98 0 0 0-1.602-1.94C19.103 5.015 16.78 5 12.523 5H6.016l-.054-.15a2 2 0 0 0-.397-.625c-.184-.197-2.02-1.578-2.193-1.651-.171-.071-.597-.066-.772.01m6.043 17.485C8.29 20.193 8 20.614 8 21c0 .527.473 1 1 1 .242 0 .52-.119.7-.299.754-.753-.047-1.989-1.057-1.632m7 0c-.352.124-.643.545-.643.931 0 .527.473 1 1 1 .242 0 .52-.119.7-.299.754-.753-.047-1.989-1.057-1.632" clip-rule="evenodd"/></svg>