<svg xmlns="http://www.w3.org/2000/svg" width="24" height="24" fill="none"><g clip-path="url(#a)"><path fill="currentColor" fill-rule="evenodd" d="m4.596 8 2 2H4v4h2.68a2 2 0 0 1 1.162.373L13 18.057v-1.653l2 2v1.402a1.1 1.1 0 0 1-1.74.895L6.68 16H4a2 2 0 0 1-2-2v-4a2 2 0 0 1 2-2zm8.665-4.7a1.1 1.1 0 0 1 1.733.78l.006.114v9.392l1.113 1.113a1 1 0 0 1 .132-1.119l.088-.089c.41-.368.667-.899.667-1.491a2 2 0 0 0-.548-1.376l-.119-.115a1 1 0 1 1 1.334-1.49 3.99 3.99 0 0 1 .985 4.614c-.23.514-.565.973-.985 1.348a1 1 0 0 1-1.007.196l-.123-.054 1.47 1.47a1 1 0 0 1 .326-.866A4.99 4.99 0 0 0 20 12c0-1.48-.642-2.81-1.667-3.727a1 1 0 1 1 1.334-1.49A6.99 6.99 0 0 1 22 12a6.99 6.99 0 0 1-2.333 5.217 1 1 0 0 1-.669.255l-.119-.007 1.606 1.606a1 1 0 0 1-1.32 1.497l-.094-.083L3.515 4.93a1 1 0 0 1 1.32-1.497l.094.083L8.275 6.86l4.986-3.562zM13 5.942 9.709 8.294 13 11.586z" clip-rule="evenodd"/></g><defs><clipPath id="a"><path fill="currentColor" d="M0 0h24v24H0z"/></clipPath></defs></svg>