<svg xmlns="http://www.w3.org/2000/svg" width="24" height="24" fill="none"><g clip-path="url(#a)"><path fill="currentColor" fill-rule="evenodd" d="M12 2c5.523 0 10 4.477 10 10a9.96 9.96 0 0 1-2.258 6.33l.02.022-.132.112A9.98 9.98 0 0 1 12 22c-2.95 0-5.6-1.277-7.43-3.307l-.2-.23-.132-.11.02-.024A9.96 9.96 0 0 1 2 12C2 6.477 6.477 2 12 2m0 15c-1.86 0-3.541.592-4.793 1.406A7.97 7.97 0 0 0 12 20a7.97 7.97 0 0 0 4.793-1.594A8.9 8.9 0 0 0 12 17m0-13a8 8 0 0 0-6.258 12.984C7.363 15.821 9.575 15 12 15s4.637.821 6.258 1.984A8 8 0 0 0 12 4m0 2a4 4 0 1 1 0 8 4 4 0 0 1 0-8m0 2a2 2 0 1 0 0 4 2 2 0 0 0 0-4" clip-rule="evenodd"/></g><defs><clipPath id="a"><path fill="currentColor" d="M0 0h24v24H0z"/></clipPath></defs></svg>