<svg xmlns="http://www.w3.org/2000/svg" width="24" height="24" fill="none"><g clip-path="url(#a)"><path fill="currentColor" fill-rule="evenodd" d="M18.158 3A2.84 2.84 0 0 1 21 5.842v12.316A2.84 2.84 0 0 1 18.158 21h-2.842v-5.684a2.84 2.84 0 0 0-2.842-2.842h-.948a2.84 2.84 0 0 0-2.842 2.842V21H5.842A2.84 2.84 0 0 1 3 18.158V5.842A2.84 2.84 0 0 1 5.842 3zm-5.684 11.368a.95.95 0 0 1 .94.837l.007.11V21H10.58v-5.684a.95.95 0 0 1 .836-.94l.111-.008zm5.684-9.473H5.842a.947.947 0 0 0-.94.836l-.007.111v.947a1.895 1.895 0 0 0 3.732.465l.03-.147a.95.95 0 0 1 .851-.787l.124-.004a.947.947 0 0 1 .94.836l.007.111a1.421 1.421 0 0 0 2.835.137l.007-.137a.947.947 0 0 1 .837-.94l.128-.007a.95.95 0 0 1 .932.685l.024.106A1.894 1.894 0 0 0 19.1 6.93l.005-.142v-.947a.95.95 0 0 0-.836-.94z" clip-rule="evenodd"/></g><defs><clipPath id="a"><path fill="currentColor" d="M0 0h24v24H0z"/></clipPath></defs></svg>