<svg width="24" height="24" viewBox="0 0 24 24" fill="none" xmlns="http://www.w3.org/2000/svg">
<g clip-path="url(#clip0_121_808)">
<path fill-rule="evenodd" clip-rule="evenodd" d="M8.293 12.707C8.10553 12.5195 8.00021 12.2652 8.00021 12C8.00021 11.7348 8.10553 11.4805 8.293 11.293L13.95 5.636C14.0422 5.54049 14.1526 5.46431 14.2746 5.4119C14.3966 5.35949 14.5278 5.3319 14.6606 5.33075C14.7934 5.3296 14.9251 5.3549 15.048 5.40518C15.1708 5.45546 15.2825 5.52971 15.3764 5.62361C15.4703 5.7175 15.5445 5.82915 15.5948 5.95205C15.6451 6.07494 15.6704 6.20662 15.6693 6.3394C15.6681 6.47218 15.6405 6.6034 15.5881 6.7254C15.5357 6.84741 15.4595 6.95775 15.364 7.05L10.414 12L15.364 16.95C15.5462 17.1386 15.647 17.3912 15.6447 17.6534C15.6424 17.9156 15.5372 18.1664 15.3518 18.3518C15.1664 18.5372 14.9156 18.6424 14.6534 18.6447C14.3912 18.647 14.1386 18.5462 13.95 18.364L8.293 12.707Z" fill="#3C46B1"/>
</g>
<defs>
<clipPath id="clip0_121_808">
<rect width="24" height="24" fill="white"/>
</clipPath>
</defs>
</svg>
