<svg width="24" height="24" viewBox="0 0 24 24" fill="none" xmlns="http://www.w3.org/2000/svg">
<g clip-path="url(#clip0_199_447)">
<path fill-rule="evenodd" clip-rule="evenodd" d="M9.464 12.707C9.27653 12.5195 9.17121 12.2652 9.17121 12C9.17121 11.7348 9.27653 11.4805 9.464 11.293L12.293 8.464C12.4329 8.32413 12.6112 8.2289 12.8052 8.19037C12.9993 8.15183 13.2004 8.17172 13.3831 8.24751C13.5659 8.32331 13.722 8.4516 13.8318 8.61617C13.9416 8.78073 14.0002 8.97416 14 9.172V14.828C14.0002 15.0258 13.9416 15.2193 13.8318 15.3838C13.722 15.5484 13.5659 15.6767 13.3831 15.7525C13.2004 15.8283 12.9993 15.8482 12.8052 15.8096C12.6112 15.7711 12.4329 15.6759 12.293 15.536L9.464 12.707Z" fill="#3C46B1"/>
</g>
<defs>
<clipPath id="clip0_199_447">
<rect width="24" height="24" fill="white"/>
</clipPath>
</defs>
</svg>
