<svg width="24" height="24" viewBox="0 0 24 24" fill="none" xmlns="http://www.w3.org/2000/svg">
<g clip-path="url(#clip0_199_498)">
<path d="M3.636 11.293C3.44853 11.4805 3.34321 11.7348 3.34321 12C3.34321 12.2652 3.44853 12.5195 3.636 12.707L9.293 18.364C9.4816 18.5462 9.7342 18.647 9.9964 18.6447C10.2586 18.6424 10.5094 18.5372 10.6948 18.3518C10.8802 18.1664 10.9854 17.9156 10.9877 17.6534C10.99 17.3912 10.8892 17.1386 10.707 16.95L6.757 13H20C20.2652 13 20.5196 12.8946 20.7071 12.7071C20.8946 12.5196 21 12.2652 21 12C21 11.7348 20.8946 11.4804 20.7071 11.2929C20.5196 11.1054 20.2652 11 20 11H6.757L10.707 7.05C10.8892 6.8614 10.99 6.6088 10.9877 6.3466C10.9854 6.0844 10.8802 5.83359 10.6948 5.64818C10.5094 5.46277 10.2586 5.3576 9.9964 5.35533C9.7342 5.35305 9.4816 5.45384 9.293 5.636L3.636 11.293Z" fill="#3C46B1"/>
</g>
<defs>
<clipPath id="clip0_199_498">
<rect width="24" height="24" fill="white"/>
</clipPath>
</defs>
</svg>
