<svg width="24" height="24" viewBox="0 0 24 24" fill="none" xmlns="http://www.w3.org/2000/svg">
<g clip-path="url(#clip0_199_443)">
<path fill-rule="evenodd" clip-rule="evenodd" d="M12.707 14.536C12.5195 14.7235 12.2652 14.8288 12 14.8288C11.7348 14.8288 11.4805 14.7235 11.293 14.536L8.464 11.707C8.32413 11.5671 8.2289 11.3888 8.19037 11.1948C8.15183 11.0007 8.17172 10.7996 8.24751 10.6169C8.32331 10.4341 8.4516 10.278 8.61617 10.1682C8.78073 10.0584 8.97416 9.99984 9.172 10H14.828C15.0258 9.99984 15.2193 10.0584 15.3838 10.1682C15.5484 10.278 15.6767 10.4341 15.7525 10.6169C15.8283 10.7996 15.8482 11.0007 15.8096 11.1948C15.7711 11.3888 15.6759 11.5671 15.536 11.707L12.707 14.536Z" fill="#3C46B1"/>
</g>
<defs>
<clipPath id="clip0_199_443">
<rect width="24" height="24" fill="white"/>
</clipPath>
</defs>
</svg>
