<svg width="24" height="24" viewBox="0 0 24 24" fill="none" xmlns="http://www.w3.org/2000/svg">
<g clip-path="url(#clip0_199_439)">
<path fill-rule="evenodd" clip-rule="evenodd" d="M11.293 9.464C11.4805 9.27653 11.7348 9.17121 12 9.17121C12.2652 9.17121 12.5195 9.27653 12.707 9.464L15.536 12.293C15.6759 12.4329 15.7711 12.6112 15.8096 12.8052C15.8482 12.9993 15.8283 13.2004 15.7525 13.3831C15.6767 13.5659 15.5484 13.722 15.3838 13.8318C15.2193 13.9416 15.0258 14.0002 14.828 14H9.172C8.97416 14.0002 8.78073 13.9416 8.61617 13.8318C8.4516 13.722 8.32331 13.5659 8.24751 13.3831C8.17172 13.2004 8.15183 12.9993 8.19037 12.8052C8.2289 12.6112 8.32413 12.4329 8.464 12.293L11.293 9.464Z" fill="#3C46B1"/>
</g>
<defs>
<clipPath id="clip0_199_439">
<rect width="24" height="24" fill="white"/>
</clipPath>
</defs>
</svg>
